<svg xmlns="http://www.w3.org/2000/svg" width="26" height="27" viewBox="0 0 26 27" fill="none">
  <path d="M9.66409 25.4104C9.01171 25.2067 7.81735 24.7143 7.00434 24.3516C3.9194 22.7383 10.7454 6.79279 11.675 4.03907C12.4188 1.8361 14.7598 1.67469 15.8035 1.97789C16.5057 2.24559 18.0561 2.84864 18.6399 3.11922C19.3696 3.45744 20.3918 4.19162 21.2962 5.12546C22.2381 6.098 22.4361 6.44395 23.2775 7.97026C24.1189 9.49657 24.5645 11.9295 24.4055 14.2427C24.2464 16.556 23.1048 19.0582 22.5092 20.0158C21.9136 20.9734 21.2087 22.2094 19.2024 23.6424C17.196 25.0754 15.2506 25.6009 13.5829 25.7623C12.0977 25.9061 10.5343 25.6822 9.66409 25.4104Z" fill="url(#paint0_linear_2041_1353)"/>
  <g filter="url(#filter0_i_2041_1353)">
    <path d="M20.4165 16.8196C22.475 11.7533 20.5118 6.17061 16.0316 4.35026C11.5515 2.52992 6.25082 5.16128 4.19234 10.2276C2.13385 15.2939 4.09702 20.8766 8.57719 22.6969C13.0574 24.5173 18.358 21.8859 20.4165 16.8196Z" fill="url(#paint1_linear_2041_1353)"/>
  </g>
  <path d="M16.6097 2.51659C21.8838 4.8742 24.0336 11.6345 21.4132 17.6152C18.7927 23.5959 12.3913 26.5332 7.12027 24.1767C1.84921 21.8202 -0.303659 15.0588 2.31679 9.0781C4.93724 3.09741 11.3356 0.158977 16.6097 2.51659Z" fill="url(#paint2_linear_2041_1353)"/>
  <path fill-rule="evenodd" clip-rule="evenodd" d="M16.692 2.3324C22.0875 4.74431 24.2532 11.6355 21.5978 17.696C18.9422 23.757 12.432 26.7721 7.03796 24.3606C1.64548 21.9499 -0.523301 15.0575 2.13211 8.99707C4.78775 2.93606 11.2949 -0.0801898 16.692 2.3324ZM21.4132 17.6151C24.0336 11.6344 21.8838 4.87407 16.6097 2.51646C11.3356 0.158849 4.93722 3.09728 2.31677 9.07798C-0.303683 15.0587 1.84919 21.8201 7.12024 24.1766C12.3913 26.533 18.7927 23.5958 21.4132 17.6151Z" fill="url(#paint3_linear_2041_1353)"/>
  <g filter="url(#filter1_i_2041_1353)">
    <path d="M13.3969 21.5785C13.2684 21.6107 13.1399 21.6428 13.0134 21.6697C13.0036 21.672 12.9902 21.6759 12.9804 21.6782C12.8415 21.7064 12.7045 21.7293 12.5659 21.7487C12.5313 21.7535 12.494 21.7574 12.4594 21.7622C12.3368 21.7787 12.2126 21.7916 12.0868 21.8008C12.0682 21.8028 12.0496 21.8047 12.0309 21.8066C11.9061 21.8133 11.7813 21.8199 11.6558 21.8204C11.6231 21.82 11.5904 21.8196 11.5577 21.8192C11.4649 21.82 11.3705 21.8173 11.2771 21.8119C11.2418 21.8105 11.2101 21.8075 11.1748 21.8062C10.9941 21.7947 10.8128 21.7771 10.6308 21.7533C10.6001 21.7477 10.571 21.7457 10.5403 21.7401C10.3848 21.7173 10.2313 21.6892 10.0781 21.6524C10.0676 21.6484 10.0598 21.6455 10.0484 21.6441C9.91968 21.6135 9.79197 21.5803 9.66623 21.5419C9.62867 21.5307 9.59111 21.5195 9.55355 21.5084C9.44969 21.4752 9.34682 21.4394 9.24494 21.401C9.21881 21.3911 9.19269 21.3813 9.16656 21.3714C9.05422 21.3291 8.94647 21.2825 8.8361 21.235C8.777 21.2097 8.71987 21.1792 8.66436 21.1523C8.59318 21.1195 8.5256 21.0851 8.45802 21.0507C8.40611 21.0222 8.3542 20.9936 8.29968 20.9641C8.23831 20.9291 8.17856 20.8976 8.12078 20.8609C8.06725 20.8288 8.01731 20.7951 7.96377 20.7629C7.90861 20.7272 7.85246 20.6941 7.8009 20.6568C7.74834 20.6221 7.69678 20.5847 7.64521 20.5474C7.59626 20.511 7.54371 20.4763 7.49574 20.4373C7.44678 20.401 7.39719 20.3584 7.34922 20.3195C7.30125 20.2805 7.25067 20.2405 7.20368 20.199C7.1567 20.1574 7.11232 20.1168 7.06534 20.0752C7.01835 20.0336 6.97137 19.9921 6.92537 19.9479C6.881 19.9073 6.84121 19.8624 6.79684 19.8218C6.74921 19.7741 6.70158 19.7263 6.65657 19.6795C6.61579 19.6372 6.57861 19.5934 6.54144 19.5495C6.49578 19.4965 6.44913 19.4461 6.40348 19.3931C6.3663 19.3493 6.33173 19.3064 6.29815 19.2609C6.25185 19.2017 6.20456 19.1451 6.16186 19.0842C6.13089 19.0398 6.09633 18.9969 6.06536 18.9524C6.0158 18.886 5.96984 18.8179 5.92487 18.7473C5.89651 18.7038 5.86554 18.6593 5.83817 18.6132C5.78733 18.5343 5.73747 18.4529 5.69121 18.3698C5.66808 18.3283 5.64396 18.2893 5.62083 18.2478C5.5472 18.1186 5.48076 17.9861 5.41433 17.8537C5.40782 17.8393 5.40293 17.8285 5.39642 17.8141C5.33097 17.6791 5.27271 17.5407 5.21544 17.3998C5.20014 17.3612 5.18386 17.3252 5.17118 17.2876C5.10123 17.1091 5.03748 16.9299 4.98093 16.7475C4.96598 16.7001 4.95201 16.6501 4.93968 16.6037C4.91628 16.5232 4.89289 16.4428 4.87211 16.3634C4.8575 16.3071 4.8455 16.2519 4.8309 16.1957C4.81273 16.1172 4.79456 16.0388 4.77901 15.9613C4.76799 15.9034 4.756 15.8482 4.74498 15.7903C4.73041 15.7103 4.71683 15.6276 4.70226 15.5475C4.69386 15.4906 4.68285 15.4327 4.67804 15.3742C4.66707 15.2925 4.65708 15.2082 4.64709 15.1239C4.64131 15.068 4.63552 15.0121 4.63072 14.9536C4.6227 14.8641 4.61729 14.7755 4.61188 14.6869C4.60772 14.6347 4.60356 14.5824 4.603 14.5284C4.59828 14.4222 4.59878 14.318 4.59667 14.2128C4.59542 14.1765 4.59516 14.1376 4.59392 14.1013C4.59416 13.9582 4.60061 13.8145 4.60804 13.6681C4.61104 13.6364 4.61403 13.6047 4.61441 13.572C4.62147 13.4583 4.63113 13.3456 4.64341 13.2339C4.64807 13.1819 4.65633 13.1283 4.66361 13.0774C4.6752 12.9833 4.68581 12.8918 4.70002 12.7987C4.71025 12.7399 4.72048 12.6811 4.72972 12.6249C4.74457 12.538 4.76041 12.4485 4.77787 12.3626C4.79204 12.2933 4.80522 12.2267 4.822 12.1584C4.83583 12.098 4.84965 12.0376 4.86348 11.9772C4.88223 11.9037 4.89999 11.8328 4.92136 11.7603C4.93779 11.7008 4.95423 11.6414 4.97067 11.5819C4.98578 11.5339 5.00089 11.4859 5.01601 11.4379C5.0643 11.2861 5.11618 11.1326 5.17167 10.9774C5.18545 10.9409 5.19826 10.9069 5.21204 10.8703C5.26817 10.7214 5.32789 10.5709 5.39284 10.4223C5.41417 10.3737 5.4381 10.326 5.45942 10.2773C5.50862 10.1706 5.55683 10.0664 5.60765 9.96323C5.63454 9.90773 5.66404 9.85321 5.69255 9.8013C5.73451 9.72164 5.77746 9.63937 5.82203 9.56069C5.85513 9.50454 5.88562 9.44741 5.91871 9.39126C5.96033 9.32042 6.00195 9.24958 6.04618 9.17973C6.08189 9.12457 6.11859 9.06679 6.1543 9.01163C6.19656 8.947 6.23784 8.88498 6.28271 8.82134C6.32103 8.76716 6.36034 8.71037 6.39866 8.65619C6.44157 8.59777 6.48447 8.53935 6.52738 8.48093C6.56831 8.42774 6.60925 8.37454 6.65018 8.32135C6.69472 8.26653 6.73925 8.2117 6.78378 8.15688C6.82733 8.10467 6.86989 8.05508 6.91344 8.00287C6.9596 7.95164 7.00675 7.8978 7.05291 7.84658C7.09808 7.79797 7.14326 7.74936 7.18843 7.70074C7.23721 7.6505 7.28598 7.60026 7.33475 7.55002C7.38156 7.50501 7.42934 7.45738 7.47615 7.41236C7.52753 7.36311 7.57793 7.31647 7.63095 7.27081C7.67775 7.22579 7.72618 7.18437 7.77461 7.14296C7.83122 7.09567 7.88882 7.04577 7.94543 6.99849C7.99288 6.95968 8.04032 6.92087 8.08777 6.88207C8.15059 6.83414 8.21341 6.78621 8.27623 6.73828C8.32171 6.7047 8.36817 6.66851 8.41364 6.63493C8.48726 6.58212 8.55988 6.53192 8.63512 6.4827C8.67503 6.45597 8.71494 6.42924 8.75485 6.40252C8.8736 6.32495 8.99398 6.25097 9.11958 6.17897C9.13495 6.16984 9.15294 6.1617 9.16929 6.14997C9.27952 6.08709 9.39497 6.02618 9.50682 5.96689C9.54738 5.94638 9.58695 5.92847 9.6275 5.90795C9.7328 5.85813 9.83811 5.80831 9.94504 5.76209C9.98461 5.74419 10.0242 5.72628 10.0664 5.70936C10.2217 5.64558 10.375 5.58702 10.5326 5.53304C10.5532 5.52588 10.5738 5.51873 10.5944 5.51157C10.7778 5.45241 10.9603 5.39586 11.1476 5.3501C11.1672 5.34556 11.1842 5.34003 11.2038 5.33549C11.3323 5.30336 11.4614 5.27743 11.5905 5.25151C11.7186 5.2282 11.8484 5.20848 11.9772 5.19138C12.0118 5.18654 12.0429 5.18332 12.0765 5.18109C12.1831 5.16755 12.2913 5.1576 12.3985 5.15026C12.4471 5.14773 12.4958 5.1452 12.5445 5.14267C12.6383 5.13923 12.7321 5.13579 12.8285 5.13334C12.8788 5.13441 12.9275 5.13187 12.9778 5.13294C13.0785 5.13507 13.1791 5.1372 13.2804 5.14554C13.3209 5.14888 13.3624 5.1496 13.4029 5.15293C13.5421 5.16362 13.6829 5.17791 13.8218 5.19743C13.8446 5.20008 13.8639 5.20436 13.8868 5.20701C14.0054 5.22486 14.123 5.24531 14.2422 5.26937C14.2896 5.27827 14.3333 5.2888 14.3797 5.30032C14.4735 5.32073 14.5688 5.34475 14.6632 5.37137C14.7122 5.38387 14.7602 5.39899 14.8118 5.41247C14.9089 5.44008 15.0013 5.47193 15.0963 5.50477C15.1381 5.52053 15.1835 5.53465 15.2253 5.55041C15.3612 5.60161 15.497 5.65282 15.6289 5.71447C17.1149 6.379 18.255 7.53375 18.9777 8.94889C18.926 8.84881 18.8742 8.74874 18.8234 8.64605C18.0769 7.18316 16.8992 5.99338 15.3656 5.30492C15.2275 5.2439 15.0874 5.18812 14.9463 5.13494C14.9019 5.1182 14.8575 5.10146 14.8121 5.08734C14.7154 5.0509 14.6158 5.02231 14.5172 4.9911C14.4665 4.975 14.4175 4.9625 14.3659 4.94902C14.2689 4.92141 14.17 4.89902 14.0736 4.87762C14.0272 4.8661 13.9772 4.85622 13.9309 4.8447C13.809 4.81966 13.6888 4.79822 13.564 4.78102C13.5411 4.77836 13.5192 4.7731 13.4964 4.77045C13.3523 4.74896 13.2079 4.7363 13.0635 4.72364C13.023 4.72031 12.9789 4.7186 12.9374 4.71788C12.8325 4.71117 12.7292 4.70805 12.626 4.70494C12.5757 4.70387 12.5244 4.70542 12.4714 4.70337C12.3724 4.70484 12.276 4.70729 12.1786 4.71235C12.1299 4.71489 12.0786 4.71643 12.0289 4.72158C11.9155 4.72956 11.8038 4.74113 11.6946 4.75369C11.6672 4.75528 11.6397 4.75687 11.6139 4.76205C11.6077 4.76269 11.6015 4.76334 11.5953 4.76398C11.4629 4.78271 11.3305 4.80144 11.1962 4.8254C11.1962 4.8254 11.1962 4.8254 11.1936 4.82441C11.0592 4.84837 10.9255 4.87853 10.7944 4.90968C10.7882 4.91032 10.782 4.91097 10.7748 4.91422C10.7614 4.91812 10.7506 4.923 10.7382 4.92429C10.5473 4.97168 10.356 5.02788 10.168 5.09129C10.1546 5.09519 10.1386 5.0981 10.1242 5.10461C10.117 5.10787 10.1098 5.11112 10.1036 5.11177C9.94244 5.16737 9.7819 5.22919 9.62298 5.2946C9.60859 5.30111 9.59159 5.30664 9.5772 5.31315C9.55202 5.32454 9.52585 5.33855 9.50067 5.34995C9.39015 5.39779 9.28223 5.44663 9.17235 5.50069C9.14618 5.51469 9.11839 5.5251 9.09321 5.5365C9.07882 5.54301 9.06345 5.55213 9.04807 5.56126C8.93001 5.62118 8.81357 5.68471 8.69975 5.74922C8.68438 5.75834 8.66999 5.76485 8.65461 5.77397C8.65461 5.77397 8.65003 5.77821 8.64742 5.77723C8.52182 5.84923 8.39686 5.92745 8.27191 6.00566C8.26471 6.00892 8.25752 6.01217 8.25195 6.01903C8.21662 6.04151 8.18391 6.06499 8.1502 6.09107C8.07398 6.1429 7.99776 6.19473 7.92055 6.24917C7.90779 6.25927 7.89601 6.26677 7.88423 6.27427C7.84792 6.29937 7.81324 6.32806 7.77953 6.35415C7.71312 6.40371 7.6503 6.45163 7.58551 6.50479C7.56915 6.51652 7.55279 6.52826 7.53545 6.54261C7.50175 6.56869 7.46967 6.59838 7.43597 6.62446C7.37577 6.67337 7.31817 6.72327 7.26058 6.77317C7.24225 6.79013 7.22229 6.8035 7.20397 6.82046C7.17288 6.84753 7.14342 6.87819 7.11233 6.90526C7.05833 6.95353 7.00695 7.00279 6.95196 7.05367C6.93265 7.07325 6.91171 7.08922 6.8924 7.1088C6.86392 7.13685 6.83446 7.16752 6.805 7.19818C6.75362 7.24744 6.70386 7.30029 6.6541 7.35314C6.63479 7.37272 6.61548 7.39229 6.59518 7.41448C6.5667 7.44253 6.54247 7.47517 6.51301 7.50583C6.46586 7.55967 6.4161 7.61252 6.36896 7.66636C6.34866 7.68855 6.32935 7.70812 6.31167 7.73129C6.2858 7.76033 6.26157 7.79297 6.23472 7.82462C6.18659 7.88107 6.14107 7.9385 6.09555 7.99594C6.07787 8.01911 6.05659 8.0439 6.0389 8.06708C6.01565 8.0971 5.99142 8.12973 5.96817 8.15976C5.92166 8.21981 5.87777 8.28084 5.83389 8.34187C5.81522 8.36765 5.79393 8.39245 5.77788 8.41922C5.75724 8.45023 5.7366 8.48123 5.71596 8.51224C5.67109 8.57589 5.62784 8.64313 5.58198 8.70939C5.56233 8.73778 5.54268 8.76618 5.52302 8.79457C5.50598 8.82395 5.48894 8.85333 5.47027 8.87912C5.42505 8.95158 5.37984 9.02405 5.33723 9.0975C5.31822 9.13211 5.29759 9.16311 5.27596 9.19673C5.26089 9.22089 5.24843 9.24603 5.23696 9.26856C5.1914 9.34985 5.14747 9.43473 5.10191 9.51602C5.08192 9.55324 5.05832 9.59208 5.04094 9.63029C5.03405 9.64857 5.02454 9.66588 5.01504 9.68318C4.96225 9.79158 4.90945 9.89997 4.85927 10.0094C4.84647 10.0433 4.82583 10.0743 4.81205 10.1109C4.80614 10.1266 4.79925 10.1449 4.79073 10.1596C4.72381 10.3133 4.6631 10.4665 4.6014 10.6223C4.59648 10.6353 4.59254 10.6458 4.58762 10.6588C4.57876 10.6824 4.56891 10.7085 4.56005 10.732C4.50096 10.8887 4.44972 11.0484 4.39946 11.2055C4.38961 11.2317 4.37977 11.2578 4.37253 11.2849C4.36465 11.3058 4.36102 11.3313 4.35314 11.3522C4.33572 11.4142 4.31829 11.4763 4.30087 11.5383C4.28114 11.6144 4.25977 11.687 4.24265 11.764C4.22784 11.8271 4.21303 11.8901 4.19921 11.9506C4.18868 11.9943 4.17815 12.0381 4.1686 12.0792C4.16398 12.1073 4.16034 12.1328 4.15311 12.1599C4.13367 12.2511 4.11784 12.3406 4.10102 12.4327C4.09079 12.4915 4.07958 12.5529 4.07196 12.6127C4.05677 12.7084 4.04419 12.8051 4.03161 12.9018C4.02596 12.9564 4.0177 13.01 4.01205 13.0645C4.00042 13.1825 3.98977 13.2978 3.98173 13.4141C3.97874 13.4458 3.97476 13.4801 3.97438 13.5128C3.96596 13.6618 3.96113 13.8091 3.95892 13.9575C3.95918 13.9964 3.95945 14.0353 3.95971 14.0741C3.96083 14.182 3.96196 14.2898 3.9657 14.3986C3.96887 14.4535 3.97205 14.5084 3.97522 14.5633C3.97964 14.6545 3.98668 14.7467 3.99371 14.8388C3.99851 14.8973 4.00593 14.9568 4.01073 15.0153C4.01974 15.1022 4.02874 15.1892 4.04134 15.2745C4.04876 15.334 4.05878 15.3944 4.06718 15.4513C4.07978 15.5366 4.09598 15.6203 4.10957 15.703C4.1154 15.735 4.12024 15.7697 4.12607 15.8017C4.13125 15.8275 4.13905 15.8543 4.14423 15.8802C4.16142 15.9612 4.1786 16.0423 4.19839 16.1244C4.213 16.1806 4.22402 16.2384 4.24124 16.2956C4.26365 16.3787 4.28605 16.4617 4.31206 16.5431C4.32375 16.5833 4.33284 16.6226 4.34453 16.6628C4.3468 16.6726 4.35267 16.6808 4.35494 16.6906C4.41475 16.8802 4.47914 17.0656 4.55072 17.2477C4.55886 17.2657 4.5634 17.2853 4.56893 17.3023C4.57869 17.3239 4.58944 17.3429 4.5966 17.3635C4.6555 17.508 4.718 17.6509 4.78508 17.7896C4.78996 17.8004 4.79485 17.8111 4.79973 17.8219C4.79973 17.8219 4.80397 17.8265 4.80299 17.8291C4.87007 17.9678 4.94173 18.1022 5.016 18.2376C5.0235 18.2494 5.0274 18.2628 5.0349 18.2746C5.05053 18.3043 5.06976 18.3325 5.08801 18.3632C5.13688 18.4473 5.18837 18.5323 5.24084 18.6148C5.25322 18.6373 5.2656 18.6599 5.28157 18.6808C5.29918 18.7054 5.31678 18.7299 5.33178 18.7535C5.37936 18.8251 5.42793 18.8941 5.47651 18.9632C5.49574 18.9913 5.51497 19.0194 5.5342 19.0476C5.54855 19.0649 5.5629 19.0823 5.57626 19.1022C5.62158 19.164 5.67049 19.2243 5.71941 19.2845C5.74386 19.3146 5.76734 19.3473 5.79179 19.3774C5.80452 19.3911 5.81724 19.4049 5.82734 19.4176C5.87202 19.4733 5.92029 19.5273 5.96856 19.5813C5.99824 19.6133 6.02694 19.648 6.05563 19.6827C6.06574 19.6955 6.07684 19.7056 6.08793 19.7158C6.13457 19.7662 6.18481 19.8149 6.23244 19.8627C6.26473 19.8958 6.29866 19.9324 6.33095 19.9655C6.34204 19.9756 6.35314 19.9858 6.36162 19.995C6.40762 20.0391 6.45721 20.0817 6.50583 20.1269C6.54335 20.1619 6.57825 20.196 6.61676 20.2284C6.62785 20.2385 6.63993 20.2461 6.64841 20.2552C6.69801 20.2978 6.74597 20.3367 6.79656 20.3767C6.83506 20.4091 6.87356 20.4415 6.91468 20.4749C6.92577 20.4851 6.93785 20.4926 6.94993 20.5001C7.00051 20.5401 7.05306 20.5748 7.10463 20.6122C7.14673 20.643 7.18622 20.6728 7.22832 20.7035C7.2404 20.7111 7.25248 20.7186 7.26455 20.7261C7.31873 20.7645 7.37749 20.7986 7.43266 20.8343C7.47574 20.8624 7.51622 20.8896 7.5593 20.9178C7.57237 20.9227 7.58444 20.9303 7.59652 20.9378C7.65691 20.9755 7.71927 21.0079 7.78064 21.043C7.82471 21.0686 7.86617 21.0931 7.91122 21.1161C7.92167 21.12 7.93212 21.124 7.9442 21.1315C8.0144 21.1669 8.0872 21.2033 8.15839 21.2361C8.20083 21.2581 8.24327 21.28 8.28931 21.3004C8.30499 21.3063 8.32327 21.3132 8.33796 21.3217C8.44996 21.3729 8.56654 21.4198 8.68149 21.4631C8.68932 21.4661 8.69455 21.468 8.70238 21.471C8.72328 21.4789 8.74157 21.4858 8.76247 21.4936C8.86958 21.534 8.97507 21.5708 9.08252 21.6023C9.10081 21.6092 9.12171 21.6171 9.13999 21.624C9.15828 21.6309 9.17854 21.6326 9.19683 21.6394C9.32878 21.6772 9.45811 21.7141 9.59041 21.743C9.59824 21.746 9.60869 21.7499 9.61653 21.7529C9.61653 21.7529 9.61914 21.7539 9.62176 21.7549C9.78116 21.7911 9.93992 21.8211 10.098 21.8449C10.1147 21.8482 10.134 21.8524 10.1532 21.8567C10.1663 21.8616 10.1797 21.8577 10.1911 21.8591C10.3783 21.8849 10.5649 21.9045 10.7544 21.9162C10.7694 21.9159 10.7825 21.9208 10.7975 21.9205C10.8178 21.9222 10.839 21.9213 10.8593 21.9229C10.9563 21.9267 11.0507 21.9295 11.1488 21.9306C11.1814 21.931 11.2167 21.9324 11.2504 21.9301C11.3795 21.9281 11.5095 21.9234 11.638 21.9151C11.6432 21.9171 11.6468 21.9154 11.653 21.9148C11.668 21.9145 11.684 21.9116 11.6991 21.9113C11.8275 21.903 11.9553 21.8885 12.0805 21.873C12.1177 21.8692 12.155 21.8653 12.1906 21.8579C12.3354 21.8378 12.4786 21.8142 12.6211 21.7844C12.6335 21.7831 12.6443 21.7782 12.6541 21.776C12.7868 21.7484 12.9205 21.7183 13.051 21.6809C13.0876 21.6708 13.1242 21.6608 13.1608 21.6507C13.3037 21.612 13.4449 21.5698 13.5855 21.5213C13.6921 21.4839 13.7977 21.4492 13.9069 21.4127C13.7699 21.4596 13.6359 21.4986 13.4982 21.5392C13.4616 21.5492 13.4286 21.5577 13.392 21.5678L13.3969 21.5785Z" fill="#FFA840"/>
  </g>
  <g filter="url(#filter2_i_2041_1353)">
    <path d="M18.883 8.77026C18.1206 7.3695 16.9397 6.24649 15.4205 5.6292C11.5878 4.07194 7.0532 6.32301 5.29221 10.6571C3.53122 14.9912 5.21067 19.7671 9.04336 21.3244C10.5781 21.948 12.2255 21.9609 13.7622 21.4739C15.9256 20.6833 17.8475 18.9265 18.9179 16.4842C20.0735 13.8477 19.9759 11.0058 18.883 8.77026Z" fill="url(#paint4_linear_2041_1353)"/>
  </g>
  <defs>
    <filter id="filter0_i_2041_1353" x="3.37488" y="3.77344" width="18.0607" height="19.7019" filterUnits="userSpaceOnUse" color-interpolation-filters="sRGB">
      <feFlood flood-opacity="0" result="BackgroundImageFix"/>
      <feBlend mode="normal" in="SourceGraphic" in2="BackgroundImageFix" result="shape"/>
      <feColorMatrix in="SourceAlpha" type="matrix" values="0 0 0 0 0 0 0 0 0 0 0 0 0 0 0 0 0 0 127 0" result="hardAlpha"/>
      <feOffset dx="0.604823" dy="0.201608"/>
      <feGaussianBlur stdDeviation="0.100804"/>
      <feComposite in2="hardAlpha" operator="arithmetic" k2="-1" k3="1"/>
      <feColorMatrix type="matrix" values="0 0 0 0 0.985791 0 0 0 0 0.628885 0 0 0 0 0.093525 0 0 0 0.73 0"/>
      <feBlend mode="normal" in2="shape" result="effect1_innerShadow_2041_1353"/>
    </filter>
    <filter id="filter1_i_2041_1353" x="3.95892" y="4.70337" width="15.0188" height="17.6312" filterUnits="userSpaceOnUse" color-interpolation-filters="sRGB">
      <feFlood flood-opacity="0" result="BackgroundImageFix"/>
      <feBlend mode="normal" in="SourceGraphic" in2="BackgroundImageFix" result="shape"/>
      <feColorMatrix in="SourceAlpha" type="matrix" values="0 0 0 0 0 0 0 0 0 0 0 0 0 0 0 0 0 0 127 0" result="hardAlpha"/>
      <feOffset dy="0.403215"/>
      <feGaussianBlur stdDeviation="0.302411"/>
      <feComposite in2="hardAlpha" operator="arithmetic" k2="-1" k3="1"/>
      <feColorMatrix type="matrix" values="0 0 0 0 1 0 0 0 0 0.664999 0 0 0 0 0.226921 0 0 0 1 0"/>
      <feBlend mode="normal" in2="shape" result="effect1_innerShadow_2041_1353"/>
    </filter>
    <filter id="filter2_i_2041_1353" x="4.5929" y="5.13574" width="15.3531" height="16.8837" filterUnits="userSpaceOnUse" color-interpolation-filters="sRGB">
      <feFlood flood-opacity="0" result="BackgroundImageFix"/>
      <feBlend mode="normal" in="SourceGraphic" in2="BackgroundImageFix" result="shape"/>
      <feColorMatrix in="SourceAlpha" type="matrix" values="0 0 0 0 0 0 0 0 0 0 0 0 0 0 0 0 0 0 127 0" result="hardAlpha"/>
      <feOffset dx="0.604823" dy="0.201608"/>
      <feGaussianBlur stdDeviation="0.100804"/>
      <feComposite in2="hardAlpha" operator="arithmetic" k2="-1" k3="1"/>
      <feColorMatrix type="matrix" values="0 0 0 0 0.985791 0 0 0 0 0.628885 0 0 0 0 0.093525 0 0 0 0.4 0"/>
      <feBlend mode="normal" in2="shape" result="effect1_innerShadow_2041_1353"/>
    </filter>
    <linearGradient id="paint0_linear_2041_1353" x1="22.3351" y1="4.65488" x2="13.5426" y2="27.4106" gradientUnits="userSpaceOnUse">
      <stop stop-color="#FFA522"/>
      <stop offset="0.334053" stop-color="#FEA125"/>
      <stop offset="0.644669" stop-color="#E3810D"/>
      <stop offset="0.96176" stop-color="#EE8A2A"/>
    </linearGradient>
    <linearGradient id="paint1_linear_2041_1353" x1="7.86682" y1="6.74222" x2="16.2775" y2="20.5842" gradientUnits="userSpaceOnUse">
      <stop stop-color="#FFCE3D"/>
      <stop offset="1" stop-color="#FFB10E"/>
    </linearGradient>
    <linearGradient id="paint2_linear_2041_1353" x1="2.07832" y1="9.65759" x2="21.9967" y2="15.9423" gradientUnits="userSpaceOnUse">
      <stop stop-color="#FFF7B2"/>
      <stop offset="1" stop-color="#FFD976"/>
    </linearGradient>
    <linearGradient id="paint3_linear_2041_1353" x1="21.5351" y1="17.0665" x2="2.10397" y2="9.74252" gradientUnits="userSpaceOnUse">
      <stop stop-color="#ED8C15"/>
      <stop offset="1" stop-color="#FFE49B"/>
    </linearGradient>
    <linearGradient id="paint4_linear_2041_1353" x1="8.43584" y1="7.67554" x2="15.631" y2="19.517" gradientUnits="userSpaceOnUse">
      <stop stop-color="#FFDC74"/>
      <stop offset="1" stop-color="#FFC03C"/>
    </linearGradient>
  </defs>
</svg>